HIERARCHY
ROOT hip
{
	OFFSET 0.000000 0.000000 0.000000 
	CHANNELS 6 Xposition Yposition Zposition Zrotation Yrotation Xrotation
	JOINT abdomen
	{
		OFFSET 0.000000 0.161626 -0.005715 
		CHANNELS 3 Zrotation Xrotation Yrotation
		JOINT chest
		{
			OFFSET 0.000000 0.091440 -0.003810 
			CHANNELS 3 Zrotation Xrotation Yrotation
			JOINT neck
			{
				OFFSET 0.000000 0.173355 -0.017145 
				CHANNELS 3 Zrotation Xrotation Yrotation
				JOINT head
				{
					OFFSET -0.001905 0.055245 0.009525 
					CHANNELS 3 Zrotation Xrotation Yrotation
					JOINT leftEye
					{
						OFFSET 0.032385 0.062865 0.062865 
						CHANNELS 3 Zrotation Xrotation Yrotation
						End Site
						{
							OFFSET 0.007812 0.000000 0.000000 
						}
					}
					JOINT rightEye
					{
						OFFSET -0.028575 0.062865 0.062865 
						CHANNELS 3 Zrotation Xrotation Yrotation
						End Site
						{
							OFFSET 0.007812 0.000000 0.000000 
						}
					}
				}
			}
			JOINT rCollar
			{
				OFFSET -0.020955 0.150495 -0.038100 
				CHANNELS 3 Zrotation Xrotation Yrotation
				JOINT rShldr
				{
					OFFSET -0.068580 -0.015240 0.011430 
					CHANNELS 3 Zrotation Xrotation Yrotation
					JOINT rForeArm
					{
						OFFSET -0.220111 -0.013371 0.003810 
						CHANNELS 3 Zrotation Xrotation Yrotation
						JOINT rHand
						{
							OFFSET -0.176468 0.006041 0.055245 
							CHANNELS 3 Zrotation Xrotation Yrotation
							JOINT rThumb1
							{
								OFFSET -0.009525 -0.003812 0.026670 
								CHANNELS 3 Zrotation Xrotation Yrotation
								JOINT rThumb2
								{
									OFFSET -0.026331 -0.004098 0.026670 
									CHANNELS 3 Zrotation Xrotation Yrotation
									End Site
									{
										OFFSET -0.013927 -0.009235 0.011176 
									}
								}
							}
							JOINT rIndex1
							{
								OFFSET -0.060621 0.007330 0.043815 
								CHANNELS 3 Zrotation Xrotation Yrotation
								JOINT rIndex2
								{
									OFFSET -0.019848 -0.006908 0.012230 
									CHANNELS 3 Zrotation Xrotation Yrotation
									End Site
									{
										OFFSET -0.012697 -0.001834 0.009102 
									}
								}
							}
							JOINT rMid1
							{
								OFFSET -0.064431 0.009235 0.026670 
								CHANNELS 3 Zrotation Xrotation Yrotation
								JOINT rMid2
								{
									OFFSET -0.024232 -0.004610 0.008318 
									CHANNELS 3 Zrotation Xrotation Yrotation
									End Site
									{
										OFFSET -0.019418 -0.002570 0.006542 
									}
								}
							}
							JOINT rRing1
							{
								OFFSET -0.068970 0.004271 0.011850 
								CHANNELS 3 Zrotation Xrotation Yrotation
								JOINT rRing2
								{
									OFFSET -0.020385 -0.006405 -0.000155 
									CHANNELS 3 Zrotation Xrotation Yrotation
									End Site
									{
										OFFSET -0.018269 -0.002297 0.001313 
									}
								}
							}
							JOINT rPinky1
							{
								OFFSET -0.064625 -0.000373 -0.003581 
								CHANNELS 3 Zrotation Xrotation Yrotation
								JOINT rPinky2
								{
									OFFSET -0.014276 -0.005058 -0.005476 
									CHANNELS 3 Zrotation Xrotation Yrotation
									End Site
									{
										OFFSET -0.013221 -0.004044 -0.004744 
									}
								}
							}
						}
					}
				}
			}
			JOINT lCollar
			{
				OFFSET 0.020955 0.150495 -0.038100 
				CHANNELS 3 Zrotation Xrotation Yrotation
				JOINT lShldr
				{
					OFFSET 0.068580 -0.015240 0.011430 
					CHANNELS 3 Zrotation Xrotation Yrotation
					JOINT lForeArm
					{
						OFFSET 0.220111 -0.013371 0.003810 
						CHANNELS 3 Zrotation Xrotation Yrotation
						JOINT lHand
						{
							OFFSET 0.176468 0.006041 0.055245 
							CHANNELS 3 Zrotation Xrotation Yrotation
							JOINT lThumb1
							{
								OFFSET 0.009525 -0.003812 0.026670 
								CHANNELS 3 Zrotation Xrotation Yrotation
								JOINT lThumb2
								{
									OFFSET 0.026331 -0.004098 0.026670 
									CHANNELS 3 Zrotation Xrotation Yrotation
									End Site
									{
										OFFSET 0.013927 -0.009235 0.011176 
									}
								}
							}
							JOINT lIndex1
							{
								OFFSET 0.060621 0.007330 0.043815 
								CHANNELS 3 Zrotation Xrotation Yrotation
								JOINT lIndex2
								{
									OFFSET 0.019848 -0.006908 0.012230 
									CHANNELS 3 Zrotation Xrotation Yrotation
									End Site
									{
										OFFSET 0.012697 -0.001834 0.009102 
									}
								}
							}
							JOINT lMid1
							{
								OFFSET 0.064431 0.009235 0.026670 
								CHANNELS 3 Zrotation Xrotation Yrotation
								JOINT lMid2
								{
									OFFSET 0.024232 -0.004610 0.008318 
									CHANNELS 3 Zrotation Xrotation Yrotation
									End Site
									{
										OFFSET 0.019418 -0.002570 0.006542 
									}
								}
							}
							JOINT lRing1
							{
								OFFSET 0.068970 0.004271 0.011850 
								CHANNELS 3 Zrotation Xrotation Yrotation
								JOINT lRing2
								{
									OFFSET 0.020385 -0.006405 -0.000155 
									CHANNELS 3 Zrotation Xrotation Yrotation
									End Site
									{
										OFFSET 0.018269 -0.002297 0.001313 
									}
								}
							}
							JOINT lPinky1
							{
								OFFSET 0.064625 -0.000373 -0.003581 
								CHANNELS 3 Zrotation Xrotation Yrotation
								JOINT lPinky2
								{
									OFFSET 0.014276 -0.005058 -0.005476 
									CHANNELS 3 Zrotation Xrotation Yrotation
									End Site
									{
										OFFSET 0.013221 -0.004044 -0.004744 
									}
								}
							}
						}
					}
				}
			}
		}
	}
	JOINT rButtock
	{
		OFFSET -0.068580 0.033991 0.009525 
		CHANNELS 3 Zrotation Xrotation Yrotation
		JOINT rThigh
		{
			OFFSET 0.000000 -0.013335 -0.017145 
			CHANNELS 3 Zrotation Xrotation Yrotation
			JOINT rShin
			{
				OFFSET 0.000000 -0.287655 0.005715 
				CHANNELS 3 Zrotation Xrotation Yrotation
				JOINT rFoot
				{
					OFFSET 0.005715 -0.352425 -0.040005 
					CHANNELS 3 Zrotation Xrotation Yrotation
					End Site
					{
						OFFSET -0.008766 -0.028903 0.094555 
					}
				}
			}
		}
	}
	JOINT lButtock
	{
		OFFSET 0.068580 0.033991 0.009525 
		CHANNELS 3 Zrotation Xrotation Yrotation
		JOINT lThigh
		{
			OFFSET 0.000000 -0.013335 -0.017145 
			CHANNELS 3 Zrotation Xrotation Yrotation
			JOINT lShin
			{
				OFFSET 0.000000 -0.287655 0.005715 
				CHANNELS 3 Zrotation Xrotation Yrotation
				JOINT lFoot
				{
					OFFSET -0.005715 -0.352425 -0.040005 
					CHANNELS 3 Zrotation Xrotation Yrotation
					End Site
					{
						OFFSET 0.008766 -0.028903 0.094555 
					}
				}
			}
		}
	}
}
MOTION
Frames: 8
Frame Time: 0.008333
-0.146245 0.676501 0.386373 -553.083984 789.158997 -904.768005 -11.676800 4.740130 2.299730 -2.273330 1.541440 0.785475 -12.128400 24.742599 -16.753500 43.654900 -51.323200 -15.610400 -0.000000 0.000000 0.000000 -0.000000 0.000000 0.000000 -0.000000 -0.000000 -0.000000 139.382996 15.779400 108.392998 -8.040300 -3.032890 14.174400 -157.514999 56.192699 167.884995 0.000000 -0.000000 -0.000000 0.000000 -0.000000 -0.000000 0.000000 -0.000000 -0.000000 7.730910 5.474880 0.417314 0.000000 -0.000000 -0.000000 2.905540 0.965183 0.102902 0.000000 -0.000000 -0.000000 10.278600 0.731801 0.025912 0.000000 -0.000000 -0.000000 2.221670 -0.733487 -0.208920 -0.000000 -0.000000 -0.000000 -75.396400 44.315498 -17.100401 25.291201 -47.530102 -98.892899 1.501470 32.530998 -5.142980 0.000000 -0.000000 -0.000000 0.000000 -0.000000 -0.000000 0.000000 -0.000000 -0.000000 -7.730910 5.474880 -0.417314 0.000000 -0.000000 -0.000000 -2.905540 0.965183 -0.102902 0.000000 -0.000000 -0.000000 -10.278600 0.731801 -0.025912 0.000000 -0.000000 -0.000000 -2.221670 -0.733487 0.208920 -0.000000 0.000000 -0.000000 -15.258200 -37.135201 -20.020599 -0.252200 35.406399 0.385517 1.375500 -3.507030 14.409900 0.000000 0.000000 0.000000 -0.776593 -20.295401 7.150120 0.267559 33.774200 -0.374992 -5.788750 -5.985040 -30.118900 
-0.144131 0.676976 0.384022 -552.914001 788.375977 -904.598022 -11.985200 4.609640 1.592370 -2.101350 1.674340 0.593985 -11.830000 24.796301 -16.953300 42.570702 -50.367699 -16.887100 -0.000000 0.000000 0.000000 -0.000000 0.000000 0.000000 -0.000000 -0.000000 0.000000 140.046005 14.473800 107.734001 -7.925910 -2.971440 13.967600 -157.076004 57.231098 167.360992 0.000000 -0.000000 -0.000000 0.000000 -0.000000 -0.000000 0.000000 -0.000000 -0.000000 7.730910 5.474880 0.417314 0.000000 -0.000000 -0.000000 2.905540 0.965183 0.102902 0.000000 -0.000000 -0.000000 10.278600 0.731801 0.025912 0.000000 -0.000000 -0.000000 2.221670 -0.733487 -0.208920 -0.000000 -0.000000 0.000000 -75.208199 43.569199 -16.902399 25.494499 -47.170799 -98.122803 1.481240 32.332199 -5.104030 0.000000 -0.000000 -0.000000 0.000000 -0.000000 -0.000000 0.000000 -0.000000 -0.000000 -7.730910 5.474880 -0.417314 0.000000 -0.000000 -0.000000 -2.905540 0.965183 -0.102902 0.000000 -0.000000 -0.000000 -10.278600 0.731801 -0.025912 0.000000 -0.000000 -0.000000 -2.221670 -0.733487 0.208920 -0.000000 0.000000 -0.000000 -14.663500 -36.625801 -18.529400 -0.234789 34.327900 0.357378 1.728290 -5.521540 13.461900 0.000000 0.000000 0.000000 -0.873312 -19.855200 7.148710 0.264788 33.440399 -0.360786 -5.836430 -5.839960 -30.633101 
-0.141307 0.676671 0.382009 -552.229004 787.890991 -904.020020 -12.094000 4.486850 0.889517 -2.200580 1.815930 0.410981 -11.452800 24.685801 -17.104500 41.270302 -49.242802 -18.153799 -0.000000 0.000000 0.000000 -0.000000 0.000000 0.000000 -0.000000 0.000000 0.000000 139.179993 12.570600 107.327003 -7.875360 -2.945010 13.875500 -155.602005 60.371101 165.636002 -0.000000 0.000000 -0.000000 -0.000000 0.000000 -0.000000 -0.000000 0.000000 -0.000000 7.730910 5.474880 0.417314 -0.000000 0.000000 -0.000000 2.905540 0.965183 0.102902 -0.000000 0.000000 -0.000000 10.278600 0.731801 0.025912 -0.000000 0.000000 -0.000000 2.221670 -0.733487 -0.208920 -0.000000 0.000000 0.000000 -75.021400 42.630600 -16.213200 25.646500 -46.909302 -97.539101 1.450560 32.021999 -5.043870 0.000000 -0.000000 0.000000 0.000000 -0.000000 -0.000000 0.000000 -0.000000 0.000000 -7.730910 5.474880 -0.417314 0.000000 -0.000000 0.000000 -2.905540 0.965183 -0.102902 0.000000 -0.000000 0.000000 -10.278600 0.731801 -0.025912 0.000000 -0.000000 0.000000 -2.221670 -0.733487 0.208920 -0.000000 0.000000 -0.000000 -13.953500 -36.109798 -17.096901 -0.226881 33.901199 0.346313 1.832600 -8.023260 11.136800 0.000000 0.000000 0.000000 -0.947978 -19.368401 6.831250 0.264242 33.311699 -0.351539 -5.987980 -6.017210 -30.802500 
-0.137820 0.675898 0.380156 -551.442017 787.692017 -903.466980 -12.010200 4.347890 0.251614 -2.434340 1.958890 0.249118 -11.088400 24.447701 -17.179600 39.924900 -48.091000 -19.241100 -0.000000 0.000000 0.000000 -0.000000 0.000000 0.000000 -0.000000 0.000000 0.000000 137.216995 10.394400 106.796997 -7.877750 -2.947050 13.878700 -152.927002 64.699501 162.628006 -0.000000 0.000000 0.000000 -0.000000 0.000000 0.000000 -0.000000 0.000000 0.000000 7.730910 5.474880 0.417314 -0.000000 0.000000 0.000000 2.905540 0.965183 0.102902 -0.000000 0.000000 0.000000 10.278600 0.731801 0.025912 -0.000000 0.000000 0.000000 2.221670 -0.733487 -0.208920 -0.000000 0.000000 0.000000 -75.038803 41.440800 -15.118900 25.751699 -46.733200 -97.132301 1.399830 31.525499 -4.947090 0.000000 -0.000000 0.000000 0.000000 -0.000000 0.000000 0.000000 -0.000000 0.000000 -7.730910 5.474880 -0.417314 0.000000 -0.000000 0.000000 -2.905540 0.965183 -0.102902 0.000000 -0.000000 0.000000 -10.278600 0.731801 -0.025912 0.000000 -0.000000 0.000000 -2.221670 -0.733487 0.208920 -0.000000 0.000000 -0.000000 -13.038400 -35.537498 -15.641700 -0.225274 33.925499 0.347436 1.647540 -10.422900 8.527860 0.000000 0.000000 0.000000 -0.918614 -18.909201 6.465270 0.266437 33.400398 -0.347282 -6.201880 -6.392250 -30.743500 
-0.134090 0.674606 0.378459 -550.791016 787.823975 -903.093994 -11.741700 4.169120 -0.260884 -2.666140 2.095890 0.121057 -10.826500 24.117901 -17.152300 38.671600 -47.057201 -20.003401 -0.000000 0.000000 0.000000 -0.000000 0.000000 0.000000 0.000000 0.000000 0.000000 134.561005 8.263590 105.880997 -7.921840 -2.970920 13.957800 -148.811005 69.302299 158.162003 -0.000000 0.000000 0.000000 -0.000000 0.000000 0.000000 -0.000000 0.000000 0.000000 7.730910 5.474880 0.417314 -0.000000 0.000000 0.000000 2.905540 0.965183 0.102902 -0.000000 0.000000 0.000000 10.278600 0.731801 0.025912 -0.000000 0.000000 0.000000 2.221670 -0.733487 -0.208920 0.000000 0.000000 0.000000 -75.453201 39.938202 -13.712400 25.811300 -46.628700 -96.897202 1.321280 30.767500 -4.799610 0.000000 -0.000000 0.000000 0.000000 -0.000000 0.000000 0.000000 -0.000000 0.000000 -7.730910 5.474880 -0.417314 0.000000 -0.000000 0.000000 -2.905540 0.965183 -0.102902 0.000000 -0.000000 0.000000 -10.278600 0.731801 -0.025912 0.000000 -0.000000 0.000000 -2.221670 -0.733487 0.208920 -0.000000 0.000000 -0.000000 -11.839200 -34.853401 -14.088700 -0.227666 34.199902 0.356462 1.403290 -12.099700 6.747030 0.000000 0.000000 0.000000 -0.714022 -18.554199 6.314490 0.272017 33.718899 -0.348131 -6.433340 -6.841950 -30.571800 
-0.130110 0.673110 0.377215 -549.885986 788.348999 -902.495972 -11.243800 3.968130 -0.653680 -2.905860 2.242900 0.025067 -10.695800 23.618401 -16.999100 37.445801 -46.148800 -20.412600 -0.000000 0.000000 0.000000 -0.000000 0.000000 0.000000 0.000000 0.000000 0.000000 130.996994 6.154250 104.627998 -7.998440 -3.010220 14.098700 -141.613007 74.122498 150.574005 -0.000000 0.000000 0.000000 -0.000000 0.000000 0.000000 -0.000000 0.000000 0.000000 7.730910 5.474880 0.417314 -0.000000 0.000000 0.000000 2.905540 0.965183 0.102902 -0.000000 0.000000 0.000000 10.278600 0.731801 0.025912 -0.000000 0.000000 0.000000 2.221670 -0.733487 -0.208920 0.000000 0.000000 0.000000 -76.275002 38.050900 -11.961600 25.813900 -46.620701 -96.885300 1.203030 29.577900 -4.572470 0.000000 0.000000 0.000000 0.000000 0.000000 0.000000 0.000000 0.000000 0.000000 -7.730910 5.474880 -0.417314 0.000000 0.000000 0.000000 -2.905540 0.965183 -0.102902 0.000000 0.000000 0.000000 -10.278600 0.731801 -0.025912 0.000000 0.000000 0.000000 -2.221670 -0.733487 0.208920 -0.000000 0.000000 -0.000000 -10.265500 -34.080299 -12.373700 -0.238625 34.964199 0.380897 1.282920 -12.697500 6.061840 0.000000 0.000000 0.000000 -0.215652 -18.313601 6.578380 0.282175 34.319500 -0.354292 -6.726220 -7.368290 -30.461000 
-0.125870 0.671548 0.376462 -548.547974 789.284973 -901.453979 -10.527400 3.749950 -0.951817 -3.211210 2.397850 -0.043895 -10.641200 22.957800 -16.743601 36.169601 -45.303200 -20.572001 -0.000000 0.000000 0.000000 -0.000000 0.000000 0.000000 0.000000 -0.000000 -0.000000 126.373001 4.094200 103.038002 -8.115250 -3.069920 14.314800 -125.418999 79.019402 133.931000 -0.000000 0.000000 0.000000 -0.000000 0.000000 0.000000 -0.000000 0.000000 0.000000 7.730910 5.474880 0.417314 -0.000000 0.000000 0.000000 2.905540 0.965183 0.102902 -0.000000 0.000000 0.000000 10.278600 0.731801 0.025912 -0.000000 0.000000 0.000000 2.221670 -0.733487 -0.208920 0.000000 -0.000000 -0.000000 -77.284698 35.793098 -9.921790 25.765800 -46.709499 -97.077301 1.065010 28.045799 -4.289980 -0.000000 0.000000 0.000000 -0.000000 0.000000 0.000000 -0.000000 0.000000 0.000000 -7.730910 5.474880 -0.417314 -0.000000 0.000000 0.000000 -2.905540 0.965183 -0.102902 -0.000000 0.000000 0.000000 -10.278600 0.731801 -0.025912 -0.000000 0.000000 0.000000 -2.221670 -0.733487 0.208920 -0.000000 0.000000 -0.000000 -8.403950 -33.226501 -10.563200 -0.259363 36.227699 0.421278 1.235740 -12.598800 5.895730 0.000000 0.000000 0.000000 0.500467 -18.149599 7.071400 0.296561 35.179199 -0.365896 -7.081940 -8.027710 -30.304399 
-0.121388 0.669984 0.376056 -546.955017 790.573975 -900.127014 -9.682850 3.472110 -1.123860 -3.517720 2.526380 -0.078120 -10.628000 22.302099 -16.427700 34.946201 -44.559502 -20.541100 -0.000000 0.000000 0.000000 -0.000000 0.000000 0.000000 0.000000 -0.000000 -0.000000 121.178001 2.406200 100.995003 -8.285900 -3.160230 14.627900 -89.243698 81.952904 97.294998 -0.000000 0.000000 0.000000 -0.000000 0.000000 0.000000 -0.000000 0.000000 0.000000 7.730910 5.474880 0.417314 -0.000000 0.000000 0.000000 2.905540 0.965183 0.102902 -0.000000 0.000000 0.000000 10.278600 0.731801 0.025912 -0.000000 0.000000 0.000000 2.221670 -0.733487 -0.208920 0.000000 -0.000000 -0.000000 -78.357399 33.245499 -7.796190 25.693100 -46.842300 -97.365196 0.940293 26.485399 -4.013060 -0.000000 0.000000 0.000000 -0.000000 0.000000 0.000000 -0.000000 0.000000 0.000000 -7.730910 5.474880 -0.417314 -0.000000 0.000000 0.000000 -2.905540 0.965183 -0.102902 -0.000000 0.000000 0.000000 -10.278600 0.731801 -0.025912 -0.000000 0.000000 0.000000 -2.221670 -0.733487 0.208920 -0.000000 0.000000 -0.000000 -6.452190 -32.216099 -8.785530 -0.281015 37.444099 0.461879 1.273430 -12.297300 6.120000 0.000000 0.000000 0.000000 1.211860 -18.069201 7.479040 0.313672 36.197498 -0.383055 -7.383440 -8.782850 -29.794901 
